<svg id="Layer_1" data-name="Layer 1" xmlns="http://www.w3.org/2000/svg" viewBox="0 0 249.81 218.92"><defs><style>.cls-1{fill:none;stroke:#5e35b1;stroke-miterlimit:10;stroke-width:5px;}.cls-2{fill:#5e35b1;}</style></defs><title>D3Logo</title><path class="cls-1" d="M187.44,187.67l25.91,25.82c65-65.19,29.37-142.92-.15-172.45C165.86-6.29,87.95-6.29,40.6,41s-47.34,125.26,0,172.6l0.15,0.15,25.82-25.91C95.91,226.32,149.61,233.57,187.44,187.67Z" transform="translate(-2.6 -3.04)"/><g id="Mark"><path class="cls-2" d="M144.4,91.54A18.11,18.11,0,0,1,151.62,93a18.7,18.7,0,0,1,5.9,4,19,19,0,0,1,4,5.93,18.49,18.49,0,0,1,0,14.48,18.91,18.91,0,0,1-9.9,9.9,17.83,17.83,0,0,1-7.23,1.48H131.1V91.54h13.3Zm0,35.45a16.25,16.25,0,0,0,6.55-1.33,17.38,17.38,0,0,0,5.35-3.6,16.81,16.81,0,0,0,3.63-5.35,16.44,16.44,0,0,0,1.33-6.57,16.14,16.14,0,0,0-1.33-6.5,17.63,17.63,0,0,0-3.58-5.35,16.59,16.59,0,0,0-5.3-3.62,16.78,16.78,0,0,0-6.5-1.37h-6.6L133.1,127h10.45v0l0.42,0A2.92,2.92,0,0,0,144.4,127Z" transform="translate(-2.6 -3.04)"/><path class="cls-2" d="M138.7,71.29a36.23,36.23,0,0,1,14.45,2.9,37.42,37.42,0,0,1,11.8,8,37.94,37.94,0,0,1,8,11.85,37,37,0,0,1,0,29,37.82,37.82,0,0,1-19.8,19.8,35.68,35.68,0,0,1-14.45,3H112.1V71.29h26.6Zm0,70.9a32.51,32.51,0,0,0,13.1-2.65,34.75,34.75,0,0,0,10.7-7.2,33.58,33.58,0,0,0,7.25-10.7,32.89,32.89,0,0,0,2.65-13.15,32.29,32.29,0,0,0-2.65-13,35.25,35.25,0,0,0-7.15-10.7A33.17,33.17,0,0,0,152,77.54a33.55,33.55,0,0,0-13-2.75H125.8l-9.7,67.4H137v-0.1a6.33,6.33,0,0,1,.85,0A5.84,5.84,0,0,0,138.7,142.19Z" transform="translate(-2.6 -3.04)"/><path class="cls-2" d="M129.3,30.79a72.45,72.45,0,0,1,28.9,5.8,74.84,74.84,0,0,1,23.6,15.9,75.92,75.92,0,0,1,16,23.7,72.13,72.13,0,0,1,5.9,29,71.41,71.41,0,0,1-5.9,28.9,75.63,75.63,0,0,1-39.6,39.6,71.37,71.37,0,0,1-28.9,5.9H76.1V30.79h53.2Zm0,141.8a65,65,0,0,0,26.2-5.3,69.46,69.46,0,0,0,21.4-14.4,67.15,67.15,0,0,0,14.5-21.4,65.78,65.78,0,0,0,5.3-26.3,64.58,64.58,0,0,0-5.3-26,70.47,70.47,0,0,0-14.3-21.4,66.32,66.32,0,0,0-21.2-14.5,67.08,67.08,0,0,0-26-5.5H103.5L84.1,172.59h41.8v-0.2a12.49,12.49,0,0,1,1.7.1A12,12,0,0,0,129.3,172.59Z" transform="translate(-2.6 -3.04)"/></g></svg>