<svg id="Layer_1" data-name="Layer 1" xmlns="http://www.w3.org/2000/svg" viewBox="0 0 140 70"><defs><style>.cls-1{fill:#e0e0e0;}</style></defs><title>ImagePH</title><rect class="cls-1" x="-168" y="-279" width="308" height="364"/><path d="M84.92,11.94a29.24,29.24,0,0,0-6.07.37c-12.7,2.12-19.41,11.41-20.79,21.25h0.28a17.82,17.82,0,0,1,14.44-6.9c10.58,0,18,7.63,18,19.32C90.81,56.92,83.36,67,70.94,67c-12.79,0-21.16-9.93-21.16-25.48,0-11.78,4.23-21.07,10.12-27A32.55,32.55,0,0,1,79,5.78a38.73,38.73,0,0,1,5.89-.46v6.62Zm-2.3,34.5c0-8.56-4.88-13.71-12.33-13.71A13.32,13.32,0,0,0,58.7,40.09a6.89,6.89,0,0,0-.92,3.59C58,53.52,62.47,60.79,70.94,60.79,77.93,60.79,82.62,55,82.62,46.44Z"/></svg>