<svg id="Layer_1" data-name="Layer 1" xmlns="http://www.w3.org/2000/svg" viewBox="0 0 140 70"><defs><style>.cls-1{fill:#e0e0e0;}</style></defs><title>ImagePH</title><rect class="cls-1" y="-147" width="308" height="364"/><path d="M52.47,55.71a27.06,27.06,0,0,0,13.25,3.77c10.4,0,13.62-6.62,13.52-11.59-0.09-8.37-7.64-12-15.46-12H59.28V29.86h4.51c5.89,0,13.34-3,13.34-10.12,0-4.78-3-9-10.49-9a22,22,0,0,0-12,4L52.57,8.79c3.13-2.3,9.2-4.6,15.64-4.6,11.78,0,17.11,7,17.11,14.26,0,6.16-3.68,11.41-11,14.08v0.18c7.36,1.47,13.34,7,13.34,15.36,0,9.57-7.45,17.94-21.8,17.94-6.72,0-12.6-2.12-15.55-4Z"/></svg>