<svg id="Layer_1" data-name="Layer 1" xmlns="http://www.w3.org/2000/svg" viewBox="0 0 140 70"><defs><style>.cls-1{fill:#e0e0e0;}</style></defs><title>ImagePH</title><rect class="cls-1" y="-279" width="308" height="364"/><path d="M86.48,13H63.67l-2.3,15.36A31.87,31.87,0,0,1,66.25,28a25.27,25.27,0,0,1,12.88,3.22c4.69,2.67,8.56,7.82,8.56,15.36C87.68,58.3,78.39,67,65.42,67c-6.53,0-12.05-1.84-14.9-3.68l2-6.16a26.78,26.78,0,0,0,12.79,3.31c7.64,0,14.17-5,14.17-13-0.09-7.73-5.24-13.25-17.2-13.25a61.79,61.79,0,0,0-8.28.64l3.86-28.7H86.48V13Z"/></svg>